<svg xmlns="http://www.w3.org/2000/svg" viewBox="0 0 483.14 482.66"><defs><style>.cls-1{fill:#fdfdfd;}.cls-2{fill:#010000;}.cls-3{fill:#e91e24;}</style></defs><title>logo_white_512</title><g id="Layer_2" data-name="Layer 2"><path class="cls-1" d="M505.14,260.92c-.94,35.93-9.94,69.63-24.66,102a86.11,86.11,0,0,1-6.14,10.27c-4.07,6.39-4.18,8,1.12,13.45,5,5.15,10.38,9.86,15.55,14.81,3.36,3.23,6.77,6.42,9.92,9.86,5.51,6,4.89,7.59-2.93,9.38-11.19,2.56-22.38,5.12-33.48,8-27.22,7.1-54.38,14.44-81.6,21.53-2.59.68-5.46.3-8.2.41.2-2.89-.09-5.91.68-8.64,9.77-34.78,19.72-69.51,29.56-104.26,1.18-4.16,1.92-8.44,3-12.61,1-3.79,3.39-4.5,6.18-1.83,5.28,5.07,10.38,10.32,15.46,15.59,3.7,3.83,7.26,7.8,10.88,11.71,2.46,2.66,4.81,2.48,6.09-.87,7.54-19.66,17.48-38.61,18.67-60.24.82-14.78,2.78-29.63,2.09-44.34-2.88-61.36-30.74-110.12-77.91-148.2-35.22-28.43-75.82-43.08-121.18-44.16-11.12-.27-11.18-.25-11.43-11.34-.15-6.49.07-13-.11-19.49-.1-3.78,1.21-5.14,5.19-5.25a217.52,217.52,0,0,1,93.83,18.43c78.2,34.2,125.6,93.73,143.47,176.77C502.68,227.92,503.25,244.56,505.14,260.92Z" transform="translate(-22 -16.63)"/><path class="cls-1" d="M80.92,353c-.7.76-1.66,2.43-3.09,3.23-8,4.45-16,8.81-24.16,12.88-1.09.54-3.57-.17-4.48-1.16-1.52-1.65-2.38-3.94-3.35-6-1.44-3.09-.69-5.45,2.53-6.91,7.56-3.44,15-7.15,22.68-10.32C76.79,342.28,81.07,345.69,80.92,353Z" transform="translate(-22 -16.63)"/><path class="cls-1" d="M84.64,361.61c2.34,2.45,5.1,4.57,6.65,7.37.59,1.05-1.13,4.34-2.64,5.45-7.09,5.17-14.5,9.89-21.74,14.85-2.73,1.87-4.91,1.54-6.73-1.17-5.81-8.62-4.6-10.71,2.77-14.24,5.05-2.42,9.72-5.63,14.59-8.44C79.52,364.28,81.57,363.25,84.64,361.61Z" transform="translate(-22 -16.63)"/><path class="cls-1" d="M40.78,253.23c-4.81,0-9.61,0-14.42,0-3.13,0-4.3-1.82-4.36-4.81-.15-8.6,2.68-11.15,11.1-10,7.22,1,14.43,2.09,21.69,2.66,4,.32,4.17,2.71,3.76,5.43-.44,2.88,1.19,7.25-4.34,7.18-4.47-.05-8.95,0-13.42,0Z" transform="translate(-22 -16.63)"/><path class="cls-1" d="M118.66,402.64c-1.52,2.41-2.31,4.28-3.62,5.65-5.37,5.64-10.83,11.21-16.4,16.65-3.59,3.5-6.73,3.07-10.64-1s-3.93-5.92.25-9.83c5.93-5.55,11.83-11.16,18-16.4a6.38,6.38,0,0,1,5.69-.81C114.43,398.1,116.31,400.51,118.66,402.64Z" transform="translate(-22 -16.63)"/><path class="cls-1" d="M231.65,491.43c1.65-8.81,3.33-17.62,4.92-26.44.81-4.51,4.11-3.36,7-3.26,3.07.1,5.28,1.3,5.09,4.73-.48,8.95-1.05,17.89-1.66,26.84-.32,4.7-3.3,5.54-7.35,5C233.44,497.53,231.85,496.19,231.65,491.43Z" transform="translate(-22 -16.63)"/><path class="cls-1" d="M61.14,289.87c.57,4.2-1.11,6-4.45,6.6-8.16,1.48-16.31,3-24.46,4.53-3.91.72-6.43-.53-7.22-4.74-1.13-6-.1-9.4,4.21-10,9.2-1.38,18.46-2.54,27.74-3.12C62.12,282.77,60.32,287.77,61.14,289.87Z" transform="translate(-22 -16.63)"/><path class="cls-1" d="M130.86,459.3c-3.39-2.41-7-4-8.92-6.77-.93-1.34.81-5.2,2.21-7.37,3.67-5.71,7.79-11.12,11.76-16.63,3.81-5.27,6.46-5.83,11.14-2.46,3.7,2.67,3.86,5.41.6,10.3-4.22,6.34-8.38,12.71-12.69,19C134,456.72,132.55,457.7,130.86,459.3Z" transform="translate(-22 -16.63)"/><path class="cls-1" d="M152.43,470.65c-9-.2-12.45-5.88-8.66-12.53,3.53-6.22,7-12.47,10.81-18.52,3.19-5.1,8.48-5.38,12.25-.73.87,1.07,1.46,3.3.94,4.41-3.75,7.95-7.73,15.79-11.86,23.55C155,468.53,153.23,469.79,152.43,470.65Z" transform="translate(-22 -16.63)"/><path class="cls-1" d="M151.6,45.75c.64.44,2.6,1.1,3.36,2.44,4.16,7.34,8.27,14.74,11.91,22.35,2.19,4.57.82,6.63-4.21,9.33-4.17,2.23-6.14-.3-7.92-3.31-3.79-6.42-7.6-12.83-11.2-19.35C140.13,51,143.33,45.87,151.6,45.75Z" transform="translate(-22 -16.63)"/><path class="cls-1" d="M103.94,127.39c0,5.55-6.61,10-10.49,7.33-7.77-5.35-15.23-11.17-22.52-17.16-.9-.74-.65-4.1.23-5.52,1.72-2.78,3.34-6.59,7.89-5.27a11.42,11.42,0,0,1,3.89,2.1q9.07,7.36,18,14.92A24.45,24.45,0,0,1,103.94,127.39Z" transform="translate(-22 -16.63)"/><path class="cls-1" d="M227.62,54.13c.13,2.52-3.8,2.66-6.79,3.68s-5.15-.1-5.93-3.34q-3.26-13.54-6.52-27.09c-.89-3.72,1-5,4.4-5.47,8.73-1.21,9.41-.74,10.77,8C224.71,37.25,226,44.59,227.62,54.13Z" transform="translate(-22 -16.63)"/><path class="cls-1" d="M125.65,410.11c2.72,2.29,5.88,3.84,7,6.32.75,1.63-.91,5-2.35,6.91-4.36,5.81-9.18,11.27-13.76,16.93-3.37,4.17-6.18,4.31-11,.41-4-3.28-4.31-5.53-.83-9.57,5-5.77,10-11.51,15.16-17.1C121.26,412.55,123.27,411.69,125.65,410.11Z" transform="translate(-22 -16.63)"/><path class="cls-1" d="M36.41,191c9.16,2.94,18.37,5.74,27.46,8.88,3.72,1.28,1.95,4.44,1.36,6.84-.74,3-1.94,6-6,5.16s-8.06-2-12.11-2.94c-4.83-1.13-9.65-2.36-14.54-3.19-3.23-.55-4.14-2.12-3.74-5.15C29.69,194.45,31.92,191.67,36.41,191Z" transform="translate(-22 -16.63)"/><path class="cls-1" d="M38,262.52c5-.28,10-.43,14.93-.9,3.87-.37,5.53,1.38,5.81,5S60,274.11,55,274.93c-4.41.72-8.93.86-13.41,1.17-4.65.32-9.31.4-13.95.83-3.34.31-4.85-.92-5.24-4.29-1-8.61.94-10.87,9.59-10.75,2,0,4,0,6,0Z" transform="translate(-22 -16.63)"/><path class="cls-1" d="M110.92,120.86c-2.7-1.73-4.84-2.73-6.51-4.25-5.8-5.25-11.36-10.76-17.15-16-3.21-2.91-2.42-5.49.21-8S92.81,86,97,89.88c6.57,6.1,12.9,12.49,19,19a5.61,5.61,0,0,1,.67,5.18C115.38,116.52,113.07,118.44,110.92,120.86Z" transform="translate(-22 -16.63)"/><path class="cls-1" d="M36,324.51c-6.15.57-5.49-4.55-6.81-7.78-1.45-3.53.43-5.36,3.6-6.17,9.19-2.33,18.37-4.74,27.65-6.61,1.19-.24,3.69,2.3,4.36,4,1,2.59,2.61,6.48-1.27,7.87C54.48,319.09,45.19,321.66,36,324.51Z" transform="translate(-22 -16.63)"/><path class="cls-1" d="M197.56,453c9.6.33,10.87,2.57,8.41,9.73s-4.21,14.32-6.17,21.52c-1.05,3.87-2.54,6.23-7.31,4.53-7-2.5-8.21-3.62-6.51-9,2.45-7.76,5-15.51,7.91-23.1C194.61,454.87,196.93,453.65,197.56,453Z" transform="translate(-22 -16.63)"/><path class="cls-1" d="M207.12,55.9c-.46,5.46-4,6.27-7.33,7.25S195,62.26,194,59.4c-2.83-8-5.77-15.87-8.69-23.8-1-2.66-1.58-5,1.77-6.68,4.54-2.25,10.34-2.41,11.39.49C201.7,38.41,204.44,47.6,207.12,55.9Z" transform="translate(-22 -16.63)"/><path class="cls-1" d="M110.67,71.28c2.3,1.66,4.18,2.55,5.41,4,5.19,6.06,10.12,12.34,15.3,18.41,3.11,3.65,1.42,6.33-1.31,9s-5.9,3.08-8.7.09C115.7,96.7,110,90.66,104.73,84.24c-1.25-1.52-1.72-5-.81-6.66C105.33,75.08,108.25,73.42,110.67,71.28Z" transform="translate(-22 -16.63)"/><path class="cls-1" d="M63,125.44c2.83,1.22,4.63,1.72,6.12,2.69C75.75,132.45,82.3,137,89,141.31c4.14,2.7,2.09,5.7.48,8.56s-3.75,5.3-7.57,3c-7.81-4.63-15.71-9.13-23.33-14.06-1.31-.85-2.48-4.1-1.87-5.3C58.23,130.53,60.84,128.05,63,125.44Z" transform="translate(-22 -16.63)"/><path class="cls-1" d="M42.77,347.53c-5.38-.53-5.29-5-6.32-8.14-.51-1.54.66-5.07,1.89-5.53,9.28-3.49,18.72-6.58,28.24-9.35,1.09-.32,3.81,1.9,4.32,3.44.8,2.37,1.24,7,.3,7.49C61.8,339.89,52.09,343.68,42.77,347.53Z" transform="translate(-22 -16.63)"/><path class="cls-1" d="M247.56,39.24c.15,3.16.13,6.34.5,9.47.5,4.26-1.82,5.63-5.47,6s-6.9-.06-7.48-4.49-.73-8.62-1.15-12.92-1-8.59-1.4-12.9c-.42-4.46,1.44-5.77,8.32-6.81,4-.6,5,1.55,5.35,4.74.55,5.63,1.05,11.26,1.57,16.9Z" transform="translate(-22 -16.63)"/><path class="cls-1" d="M177.53,445.16c8.71,0,11.12,2.93,8.51,9.8-3,7.9-6.58,15.6-10,23.34-1.41,3.18-4,3-6.75,2-3.44-1.31-6.87-2.89-5.6-7.39a82.75,82.75,0,0,1,4.45-11.07c2.09-4.68,4.21-9.35,6.59-13.88C175.43,446.55,177,445.64,177.53,445.16Z" transform="translate(-22 -16.63)"/><path class="cls-1" d="M227.64,464.13c-.07.5-.17,1.32-.32,2.14-1.41,7.83-2.79,15.66-4.27,23.47-1,5.24-2.33,5.92-8.2,4.54-7.06-1.66-7.65-2.47-6.31-7.9,1.91-7.71,3.81-15.43,5.52-23.19.86-3.92,2.9-5.72,7-5.3C225.45,458.35,227.54,460.12,227.64,464.13Z" transform="translate(-22 -16.63)"/><path class="cls-1" d="M77.08,410.55c-2.47-3-5.33-5.53-6.9-8.72-.62-1.27,1.08-4.65,2.65-5.85,6.86-5.24,14-10.1,21.15-14.94,3.47-2.35,6,.24,8.21,2.39s2.83,5,.05,7.39c-3.54,3-7.23,5.85-10.86,8.76-3.36,2.69-6.71,5.4-10.1,8.06C80.27,408.44,79.16,409.12,77.08,410.55Z" transform="translate(-22 -16.63)"/><path class="cls-1" d="M56.57,232.74c-10.42-1.24-19.34-2.21-28.22-3.48-1.29-.18-3.4-1.92-3.35-2.84.18-3.38.37-7.19,2.08-9.87.85-1.33,5.07-1,7.66-.65,7.08.92,14.13,2.09,21.13,3.51,1.89.38,4.85,1.85,5,3.1a21.47,21.47,0,0,1-1.32,9.13C59.24,232.55,56.68,232.7,56.57,232.74Z" transform="translate(-22 -16.63)"/><path class="cls-1" d="M150.63,85.75c-1.79,1.66-3.29,3.76-5.33,4.74-1.65.8-4,.58-5.94.18-1.09-.23-2.06-1.61-2.85-2.65q-6.55-8.72-13-17.54c-3.38-4.66-3-7.33,1.43-10.44,4.75-3.36,7.54-2.88,10.77,1.94q6.08,9.08,12,18.23C148.77,81.72,149.45,83.41,150.63,85.75Z" transform="translate(-22 -16.63)"/><path class="cls-1" d="M35.64,179.87c0-9.48,5.13-12.45,12.4-9.1,6.16,2.85,12.67,4.95,19,7.41,5.43,2.11,6.39,3.93,4.59,8.49-2.15,5.44-4.12,6-9.63,4-7.59-2.84-15.37-5.17-23-8C37.48,182.1,36.32,180.45,35.64,179.87Z" transform="translate(-22 -16.63)"/><path class="cls-1" d="M172.53,35.4c.95.8,3.34,1.89,4.16,3.7,3.69,8.14,7.14,16.4,10.24,24.79,1.52,4.11-2.44,5-5.07,5.91s-5.37,2.27-7.1-1.7C171.52,60.65,168,53.33,164.56,46,161.41,39.27,163.83,35.42,172.53,35.4Z" transform="translate(-22 -16.63)"/><path class="cls-1" d="M81,163.46c0,6.9-5,9.78-11.09,6.76C63,166.84,56,163.7,49,160.67c-3.47-1.5-5.11-3.18-3.27-7.19,2.84-6.18,4.73-7.82,8.92-5.8,7.92,3.82,15.67,8,23.52,12a50.13,50.13,0,0,0,4.75,1.84Z" transform="translate(-22 -16.63)"/><path class="cls-1" d="M256.42,481.33c.27-5,.33-10,.94-14.92.18-1.44,1.94-2.68,3-4,1.08,1.23,3.05,2.43,3.09,3.68.27,9.78.3,19.58,0,29.36,0,1.32-2.31,2.56-3.55,3.84-1-1.5-2.67-2.93-2.81-4.5-.39-4.45-.14-9-.14-13.45Z" transform="translate(-22 -16.63)"/><path class="cls-2" d="M284.29,443.52c-15.46-1.6-26.16,1-37,3.66-18.82,4.68-36.18,1.34-52.2-10.24-7.7-5.57-16.66-9.38-25-14.1a36.11,36.11,0,0,1-6.9-4.78c-7.9-7.38-18-11-27-16.39-16.91-10-32.25-21.87-41.23-40.46-4.55-9.42-8.94-18.62-11.17-28.95a81.06,81.06,0,0,0-7-19c-6.21-12.39-8.45-25.59-9.75-39.14-.79-8.19-1.72-16.4-3.32-24.46-1.75-8.86,0-17.05,2.88-25.28,1.92-5.41,4.09-10.83,5.14-16.44,1.29-6.93,4.45-12.7,8.48-18.22,5.46-7.49,10.82-15.05,16.31-22.52,4.83-6.57,7.07-14.12,8.56-22S110.6,131,116.63,125.6a166.17,166.17,0,0,0,14.92-15.37c8.25-9.58,19.63-13.9,30.52-19.2,15.06-7.33,31.2-11.52,46.84-17.13,15.42-5.53,30.25-6,45.69-3.51C265.38,72.13,275.89,72,286.42,69c12.16-3.53,22.65,1.19,32,8.12a168.86,168.86,0,0,0,28.49,16.67c12.76,6.1,26.24,11.57,36.5,21.84,6.91,6.91,13.1,14.54,19.67,21.79,2.23,2.46,4.3,5.37,7.08,7,11.43,6.72,16.79,17.6,22.24,29,8,16.81,9.75,34.8,12,52.75,1.87,15.21,3.14,30.48,4.63,45.73,1.61,16.5-4.08,30.51-14.82,42.7-2.88,3.27-7.41,2.51-11-1.07-3-3-6-6.42-9.64-8.43-7-3.82-12-2-14.45,5.5a201,201,0,0,0-6.89,26.5,111,111,0,0,1-16.1,39.9c-4.81,7.54-7.63,16.4-11,24.81-3,7.47-5.77,14.94-13.23,19.23a48.76,48.76,0,0,1-6.66,3.13c-13.11,5.09-26.08,10.61-39.43,15C297.63,441.78,288.86,442.63,284.29,443.52ZM180.91,279.75c11.06,1.7,22.74-10.81,22.67-21.25-.09-14.18-9-24.52-21.44-24.57-14.92-.06-24.69,8.44-24.75,21.52C157.33,270.75,166,279.71,180.91,279.75Zm161.38-39.07c.33-11.65-9.46-22.49-20.53-22.74-14.18-.32-25,8.46-25.41,20.63-.49,14.31,8.15,25,20.5,25.33C333,264.36,341.85,256.26,342.29,240.68Z" transform="translate(-22 -16.63)"/><path class="cls-3" d="M180.91,279.75c-14.92,0-23.58-9-23.51-24.31.06-13.08,9.83-21.57,24.75-21.52,12.4,0,21.35,10.39,21.44,24.57C203.65,268.94,192,281.46,180.91,279.75Z" transform="translate(-22 -16.63)"/><path class="cls-3" d="M342.29,240.68c-.44,15.58-9.32,23.68-25.44,23.22-12.35-.35-21-11-20.5-25.33.41-12.17,11.23-20.95,25.41-20.63C332.83,218.19,342.62,229,342.29,240.68Z" transform="translate(-22 -16.63)"/></g></svg>